<svg xmlns="http://www.w3.org/2000/svg" viewBox="4 8 45 45">
<path fill="#F3703A" d="M26.36,27.29c2.46,0,4.46,2,4.46,4.46s-2,4.46-4.46,4.46s-4.46-2-4.46-4.46S23.9,27.29,26.36,27.29z
	 M30,10.33c0-1.32-1.21-1.89-2.34-2c-0.88-0.14-1.77-0.14-2.65,0c-1.13,0.15-2.29,0.73-2.34,2c0,0.42,1.33,7.47,1.77,10.26
	c0.12,0.76,0.23,1.52,0.39,2.28c0.03,0.32,0.16,0.63,0.37,0.88c0.22,0.18,0.51,0.27,0.8,0.25c0.3,0,0.59,0,0.89,0
	c0.23,0.02,0.46-0.06,0.63-0.21c0.2-0.25,0.32-0.55,0.36-0.87c0.15-0.76,0.27-1.52,0.38-2.28C28.69,17.8,30,10.75,30,10.33z"/>
<path fill="#ADBECB" d="M14.66,18.18c-0.56-0.41-1.33-0.33-1.8,0.18c-0.2,0.16-0.39,0.33-0.56,0.52c-0.17,0.19-0.33,0.4-0.47,0.61
	c-0.46,0.52-0.46,1.29,0,1.81c0.18,0.18,1.79,1.36,2.4,1.78c1.37,0.95,2.74,1.88,4.13,2.81c0.38,0.25,0.76,0.51,1.15,0.75
	c0.15,0.11,0.34,0.18,0.53,0.19c0.16-0.03,0.3-0.12,0.39-0.25c0.12-0.12,0.23-0.25,0.34-0.38c0.1-0.09,0.15-0.22,0.15-0.35
	c-0.03-0.18-0.12-0.36-0.24-0.5c-0.27-0.36-0.56-0.72-0.85-1.07c-1.05-1.3-2.1-2.59-3.16-3.87C16.17,19.84,14.85,18.34,14.66,18.18z
	 M41,21.39c0.46-0.52,0.46-1.29,0-1.81c-0.14-0.21-0.3-0.42-0.47-0.61c-0.17-0.19-0.36-0.37-0.56-0.53c-0.46-0.52-1.24-0.6-1.8-0.19
	c-0.19,0.16-1.53,1.65-2,2.22c-1.09,1.27-2.15,2.56-3.17,3.85c-0.29,0.35-0.58,0.7-0.85,1.07c-0.13,0.14-0.21,0.32-0.24,0.51
	c0.02,0.16,0.09,0.31,0.21,0.42l0.35,0.38c0.08,0.1,0.21,0.17,0.34,0.18c0.19-0.02,0.37-0.08,0.52-0.19
	c0.39-0.24,0.77-0.49,1.15-0.74c1.39-0.92,2.78-1.85,4.16-2.79C39.18,22.74,40.81,21.56,41,21.39z M44.08,34.48
	c0.78,0,1.14-0.66,1.25-1.31c0.1-0.5,0.12-1.02,0.05-1.53c-0.07-0.66-0.39-1.34-1.16-1.39c-0.25,0-2.25,0.12-3,0.2
	c-1.65,0.17-3.32,0.36-5,0.55c-0.45,0.05-0.91,0.1-1.36,0.17c-0.19,0.01-0.38,0.08-0.53,0.2c-0.1,0.13-0.15,0.28-0.14,0.44
	c0,0.17,0,0.34,0,0.51c-0.02,0.13,0.03,0.27,0.12,0.37c0.14,0.12,0.32,0.19,0.5,0.22c0.44,0.1,0.9,0.18,1.34,0.27
	c1.64,0.31,3.28,0.6,4.92,0.89C41.84,34.2,43.83,34.48,44.08,34.48z M37.19,46c0.51,0.46,1.3,0.46,1.81,0
	c0.21-0.15,0.4-0.31,0.59-0.48c0.18-0.18,0.35-0.37,0.51-0.58c0.5-0.48,0.56-1.26,0.13-1.81c-0.16-0.18-1.7-1.47-2.28-1.93
	c-1.33-1.03-2.67-2.06-4-3.07c-0.36-0.28-0.72-0.56-1.09-0.82c-0.14-0.12-0.32-0.2-0.51-0.23c-0.16,0.02-0.3,0.1-0.41,0.22
	l-0.36,0.36c-0.1,0.09-0.16,0.21-0.17,0.34c0.02,0.19,0.09,0.36,0.21,0.51c0.25,0.38,0.51,0.75,0.78,1.13
	c0.96,1.33,1.93,2.69,2.92,4.06C35.77,44.28,37,45.87,37.19,46z M24.2,49.54c0,0.78,0.69,1.12,1.35,1.22
	c0.25,0.04,0.51,0.06,0.76,0.07c0.26,0,0.51-0.02,0.77-0.06c0.65-0.09,1.32-0.42,1.35-1.21c0-0.25-0.19-2.24-0.29-3
	c-0.22-1.65-0.45-3.32-0.7-5c-0.07-0.45-0.13-0.9-0.22-1.35c-0.02-0.19-0.09-0.37-0.21-0.52c-0.13-0.1-0.29-0.14-0.45-0.13H26
	c-0.13-0.01-0.26,0.03-0.36,0.12c-0.11,0.15-0.19,0.32-0.21,0.51c-0.09,0.45-0.15,0.9-0.22,1.35c-0.26,1.65-0.51,3.3-0.74,4.95
	C24.4,47.3,24.19,49.3,24.2,49.54z M12.43,43c-0.43,0.54-0.38,1.33,0.12,1.81c0.15,0.2,0.32,0.4,0.5,0.58
	c0.18,0.18,0.38,0.34,0.59,0.49c0.49,0.49,1.28,0.52,1.81,0.08c0.18-0.17,1.42-1.75,1.86-2.34c0.99-1.33,1.97-2.67,2.94-4
	c0.27-0.37,0.53-0.74,0.78-1.12c0.12-0.15,0.19-0.33,0.21-0.52c-0.03-0.16-0.11-0.3-0.23-0.4c-0.12-0.12-0.24-0.24-0.37-0.35
	c-0.09-0.1-0.22-0.16-0.35-0.16c-0.18,0.03-0.36,0.1-0.5,0.22c-0.38,0.26-0.74,0.54-1.1,0.81c-1.33,1.01-2.67,2.01-4,3
	C14.14,41.56,12.59,42.84,12.43,43z M8.51,30.15c-0.78,0-1.1,0.73-1.17,1.38c-0.02,0.26-0.02,0.51,0,0.77
	c0.01,0.26,0.04,0.51,0.09,0.76c0.11,0.65,0.47,1.31,1.25,1.32c0.25,0,2.24-0.27,3-0.39c1.65-0.27,3.29-0.56,4.93-0.86
	c0.45-0.08,0.9-0.16,1.34-0.26c0.19-0.02,0.37-0.1,0.52-0.23c0.09-0.13,0.13-0.29,0.11-0.45c0-0.17,0-0.34,0-0.51
	c0-0.13-0.05-0.26-0.14-0.36c-0.15-0.11-0.33-0.17-0.51-0.19c-0.45-0.07-0.91-0.13-1.36-0.18c-1.65-0.21-3.32-0.4-5-0.58
	C10.76,30.29,8.76,30.14,8.51,30.15z"/>
</svg>
