<svg xmlns="http://www.w3.org/2000/svg" viewBox="0 0 116 17" class="txt-color-primary"><style>.txt-color-primary{color:#1E2B3E}.logo-gradient{fill:url(#gradient)}</style>
  <defs>
    <radialGradient id="gradient" cx="-810.93" cy="495.53" fx="-810.93" fy="495.53" r="1"
                    gradientTransform="translate(8112.22 4925.37) scale(10 -9.93)" gradientUnits="userSpaceOnUse">
      <stop offset="0" stop-color="#e73a52"/>
      <stop offset="0" stop-color="#e53a53"/>
      <stop offset=".2" stop-color="#af4d70"/>
      <stop offset=".38" stop-color="#835d89"/>
      <stop offset=".56" stop-color="#60699c"/>
      <stop offset=".72" stop-color="#4871a9"/>
      <stop offset=".88" stop-color="#3977b2"/>
      <stop offset="1" stop-color="#3479b5"/>
    </radialGradient>
  </defs>
  <path class="logo-gradient"
        d="M8.88,3.15l-1.19-2.14h-1.87l1.55,2.65H.49v1.41h6.76l-1.59,2.61h1.87l1.98-3.4-.64-1.13Z"/>
  <path fill="currentColor"
        d="M18.55,4.41c0-2.04,1.52-3.55,3.55-3.55.9,0,1.63.26,2.02.45v1.46h-.03c-.3-.16-.91-.49-1.93-.49-1.2,0-1.97.8-1.97,2.04,0,1.35.79,2.06,2.06,2.06.83,0,1.51-.3,1.85-.45h.03v1.41c-.42.22-1.22.47-2.08.47-2.02,0-3.53-1.39-3.53-3.4h.03ZM25.52,4.94V1.02h1.63v3.8c0,1.02.44,1.59,1.23,1.59s1.23-.56,1.23-1.59V1.02h1.63v3.91c0,1.85-1.02,2.89-2.86,2.89s-2.86-1.04-2.86-2.89ZM37.91,1.01v1.41h-1.97v5.27h-1.63V2.41h-1.98v-1.41h5.58ZM39.11,7.68V1.01h1.63v6.67h-1.63ZM45.03,7.73l-3.23-6.7v-.03h1.84c.57,1.26,1.11,2.54,1.6,3.8h.03c.48-1.23,1.01-2.55,1.57-3.8h1.83v.03l-3.23,6.7h-.41ZM54.05,2.41h-2.73v1.23h2.51v1.41h-2.51v1.21h2.73v1.41h-4.35V1h4.35v1.41h0ZM62.27,2.41h-2.73v1.23h2.51v1.41h-2.51v1.21h2.73v1.41h-4.35V1h4.35v1.41h0ZM66.2,1.01c2.45,0,3.72,1.43,3.72,3.32s-1.3,3.35-3.72,3.35h-2.47V1.01h2.47ZM66.17,6.28c1.31,0,2.12-.6,2.12-1.9s-.83-1.94-2.1-1.94h-.83v3.86h.82ZM71.17,4.94V1.02h1.63v3.8c0,1.02.44,1.59,1.23,1.59s1.23-.56,1.23-1.59V1.02h1.63v3.91c0,1.85-1.02,2.89-2.86,2.89s-2.86-1.04-2.86-2.89ZM78.13,4.41c0-2.04,1.52-3.55,3.55-3.55.9,0,1.63.26,2.02.45v1.46h-.03c-.3-.16-.91-.49-1.93-.49-1.19,0-1.97.8-1.97,2.04,0,1.35.79,2.06,2.06,2.06.83,0,1.51-.3,1.85-.45h.03v1.41c-.42.22-1.22.47-2.08.47-2.02,0-3.53-1.39-3.53-3.4h.03ZM88.18.96l3.27,6.7v.03h-1.8l-.57-1.23h-2.12l-.56,1.23h-1.81v-.03l3.29-6.7h.3-.01ZM88.01,3.52s-.01.04-.03.07c-.19.51-.42,1.12-.64,1.6h1.31c-.22-.51-.45-1.14-.64-1.66h-.01ZM97.07,1.01v1.41h-1.97v5.27h-1.63V2.41h-1.98v-1.41h5.58ZM98.27,7.68V1.01h1.63v6.67h-1.63ZM101.26,4.31c0-1.97,1.52-3.44,3.55-3.44s3.59,1.48,3.59,3.45-1.51,3.51-3.53,3.51-3.59-1.5-3.59-3.51h-.01ZM106.74,4.29c0-1.22-.75-2-1.92-2s-1.9.8-1.9,2.04.74,2.06,1.88,2.06,1.96-.83,1.96-2.09h-.01ZM113.89,1.01h1.6v6.79h-.26l-3.88-3.57v3.45h-1.6V.88h.26l3.88,3.56V1.01ZM.49,1.01v1.41h4.34v-1.41H.49ZM2.12,6.28H.49v1.41h4.34v-1.41h-2.71ZM16.23,5.07h.98v-1.41h-4.15v1.41h3.18ZM14.69,6.28h-1.63v1.41h4.35v-1.41h-2.73ZM13.06,1.01v1.41h4.35v-1.41h-4.35ZM9.3,1.01h2.79l-1.44,2.42-1.35-2.42ZM10.66,5.11l-1.5,2.57h3l-1.51-2.57ZM3.72,11.71h.66v4.78h-.66v-2.1H1.15v2.1H.49v-4.78h.66v2.11h2.57v-2.11ZM6.24,15.92h2.21v.58h-2.88v-4.78h2.86v.58h-2.2v1.54h2.05v.58h-2.05v1.51h.01ZM9.22,14.13c0-1.42,1.03-2.51,2.45-2.51.74,0,1.23.24,1.51.41v.66c-.24-.18-.73-.47-1.5-.47-1.05,0-1.79.79-1.79,1.88s.77,1.92,1.81,1.92c.69,0,1.23-.29,1.48-.5h.01v.63c-.28.21-.83.46-1.55.46-1.4,0-2.45-1.05-2.45-2.47h.01ZM16.74,15.92h2.22v.58h-2.88v-4.78h.66v4.2ZM21.75,11.68l2.21,4.82h-.75s-.52-1.18-.52-1.18h-2.04l-.52,1.2h-.77l2.24-4.83h.15ZM21.67,12.84c-.25.62-.56,1.31-.83,1.93h1.65l-.81-1.93h-.01ZM24.42,14.43v-2.72h.66v2.67c0,1.12.44,1.63,1.28,1.63s1.28-.51,1.28-1.63v-2.67h.66v2.72c0,1.44-.66,2.17-1.95,2.17s-1.95-.72-1.95-2.17ZM29.18,16.08v-.67h.03c.36.33.83.62,1.5.62.6,0,1.02-.25,1.02-.7,0-1.06-2.47-.88-2.47-2.4,0-.79.66-1.3,1.55-1.3.58,0,1.03.2,1.28.35v.66c-.2-.16-.66-.43-1.24-.43-.54,0-.94.25-.94.67,0,1.01,2.49.85,2.49,2.43,0,.83-.66,1.3-1.63,1.3-.74,0-1.28-.29-1.59-.54h.01ZM35.16,11.68l2.21,4.82h-.75s-.52-1.18-.52-1.18h-2.04l-.52,1.2h-.77l2.24-4.83h.15ZM35.06,12.84c-.25.62-.56,1.31-.83,1.93h1.65l-.81-1.93h-.01ZM41.3,11.71h.66v4.87h-.11l-3.16-3.48v3.4h-.66v-4.89h.11l3.16,3.47v-3.36h0ZM46.43,11.71h.66v4.87h-.11l-3.16-3.48v3.4h-.66v-4.89h.11l3.16,3.47v-3.36h0ZM48.97,15.92h2.21v.58h-2.88v-4.78h2.86v.58h-2.2v1.54h2.05v.58h-2.05v1.51h.01Z"/>
</svg>