<?xml version="1.0" encoding="UTF-8"?> <svg xmlns="http://www.w3.org/2000/svg" width="49" height="32" viewBox="0 0 49 32" fill="none"><path d="M25.9557 0L38.391 21.78H13.5204L25.9557 0Z" fill="#FEE487"></path><path d="M36.3557 0L48.791 21.78H23.9204L36.3557 0Z" fill="#FFD838"></path><path d="M1.77273 31.2C1.15227 31.2 0.694318 30.9765 0.398864 30.5295C0.132955 30.0825 0 29.4716 0 28.6968C0 28.2499 0.0443182 27.7582 0.132955 27.2218C0.221591 26.6854 0.325 26.1192 0.443182 25.5232C0.797727 23.9438 1.34432 22.2006 2.08295 20.2934C2.85114 18.3564 3.72273 16.3748 4.69773 14.3484C5.70227 12.2923 6.70682 10.2957 7.71136 8.35874C8.74545 6.42178 9.70568 4.64871 10.592 3.03954C10.6511 2.92034 10.7693 2.69685 10.9466 2.36905C11.1534 2.04126 11.3159 1.80287 11.4341 1.65387C10.2818 1.68367 9.48409 1.63586 8.15454 1.90406C6.85454 2.14245 7.21136 2.15298 6 2.59998C6 2.59998 8.64091 0.0999756 10 0.0999756L18.2148 0C17.5648 0.506589 16.7966 1.43037 15.9102 2.77135C15.0239 4.08252 14.108 5.57249 13.1625 7.24126C12.7489 7.98625 12.2318 8.95473 11.6114 10.1467C10.9909 11.3387 10.3409 12.6648 9.66136 14.1249C8.98182 15.5553 8.33182 17.0006 7.71136 18.4607C7.09091 19.9209 6.55909 21.3066 6.11591 22.6178C5.67273 23.8991 5.39205 25.0017 5.27386 25.9255C5.24432 26.0745 5.22955 26.2235 5.22955 26.3725C5.22955 26.4917 5.22955 26.6258 5.22955 26.7748C5.22955 27.6092 5.45114 28.3095 5.89432 28.8756C6.3375 29.412 7.16477 29.6802 8.37614 29.6802C9.94204 29.6802 11.5227 29.6206 13.1182 29.5014C14.7432 29.3524 16.3239 29.0544 17.8602 28.6074C19.1602 28.2201 20.342 27.6986 21.4057 27.043C22.4693 26.3874 23.2375 25.5679 23.7102 24.5845C23.7693 24.4653 23.8432 24.4057 23.9318 24.4057C24.1386 24.4057 24.242 24.5696 24.242 24.8974C24.242 24.957 24.2273 25.0315 24.1977 25.1209C24.1977 25.2103 24.1829 25.3146 24.1534 25.4338C23.917 26.2086 23.6364 26.894 23.3114 27.49C22.9864 28.086 22.6614 28.5925 22.3364 29.0097C21.5091 30.0229 20.4307 30.6487 19.1011 30.8871C17.8011 31.0957 16.5011 31.2 15.2011 31.2H1.77273Z" fill="#191919"></path></svg> 