<svg width="163" height="33" viewBox="0 0 163 33" fill="none" xmlns="http://www.w3.org/2000/svg">
<path d="M61.3082 9.10612H65.5229V10.8008H61.3082V15.9759C61.2982 16.4436 61.3418 16.911 61.4372 17.3688C61.4979 17.6829 61.6297 17.9786 61.8227 18.2328C61.9888 18.4408 62.2121 18.5949 62.4647 18.6761C62.7554 18.7676 63.0582 18.8116 63.3626 18.8064C63.8524 18.8232 64.341 18.7532 64.807 18.5997C65.176 18.4638 65.4231 18.3669 65.5671 18.3092L65.9509 19.9722C65.6112 20.123 65.261 20.2475 64.903 20.3446C64.3465 20.5036 63.7696 20.5801 63.1911 20.5718C62.5546 20.5918 61.9198 20.4926 61.3192 20.2794C60.851 20.1032 60.4401 19.8004 60.1312 19.4042C59.8157 18.98 59.6001 18.4891 59.5003 17.9684C59.3701 17.3182 59.3083 16.6559 59.3155 15.9926V5.97391L61.306 5.62939L61.3082 9.10612Z" fill="#15151E"/>
<path d="M65.9305 14.7448C65.9112 13.8565 66.0568 12.9724 66.3585 12.1377C66.6084 11.4507 66.9944 10.8222 67.493 10.2904C67.9497 9.80986 68.5039 9.43447 69.1178 9.18984C69.7162 8.94571 70.3554 8.81932 71.0013 8.81738C72.4992 8.81738 73.6475 9.28918 74.4466 10.2327C75.2464 11.1762 75.6451 12.6126 75.644 14.5419V14.877C75.644 15.0015 75.6374 15.1258 75.6236 15.2495H68.0054C68.0903 16.4177 68.4256 17.3035 69.0108 17.9069C69.596 18.5102 70.5104 18.8169 71.7535 18.8268C72.3475 18.8367 72.9399 18.7742 73.519 18.6406C73.889 18.554 74.2509 18.4344 74.6 18.283L74.8785 19.9591C74.4704 20.1441 74.0424 20.2822 73.6039 20.3706C72.9261 20.5221 72.2339 20.5946 71.5396 20.5866C70.6808 20.6062 69.8271 20.4557 69.0257 20.1434C68.3594 19.8764 67.7632 19.4584 67.2823 18.9218C66.8157 18.3873 66.4688 17.7571 66.2659 17.0745C66.0381 16.3196 65.925 15.5341 65.9305 14.7448ZM73.5686 13.6424C73.5835 12.7349 73.359 11.99 72.8958 11.4077C72.6669 11.1198 72.374 10.8904 72.0409 10.7383C71.7083 10.5862 71.3443 10.5157 70.9792 10.5325C70.5606 10.523 70.1464 10.615 69.7708 10.8007C69.4316 10.9722 69.1294 11.2109 68.8834 11.5027C68.6369 11.7972 68.4444 12.134 68.3153 12.4972C68.1813 12.8661 68.0914 13.25 68.0478 13.6405L73.5686 13.6424Z" fill="#15151E"/>
<path d="M79.8163 18.8923C80.6298 18.8923 81.231 18.7843 81.6242 18.5683C81.8112 18.4718 81.9667 18.3223 82.071 18.1381C82.1757 17.9539 82.2248 17.7429 82.2127 17.5311C82.2193 17.3037 82.1702 17.0781 82.0693 16.8747C81.9684 16.6712 81.8195 16.4962 81.6352 16.3653C81.0401 15.9672 80.4015 15.641 79.7314 15.3932C79.3034 15.22 78.892 15.045 78.5009 14.8643C78.1342 14.7007 77.7922 14.4857 77.485 14.2256C77.1988 13.9814 76.966 13.6803 76.8006 13.3411C76.6175 12.9419 76.5292 12.5051 76.5425 12.0654C76.5259 11.6121 76.6164 11.1613 76.8061 10.7501C76.9958 10.3389 77.2798 9.97915 77.6345 9.70043C78.3608 9.11694 79.3519 8.8252 80.6078 8.8252C80.9227 8.82553 81.237 8.84354 81.5503 8.87919C81.8636 8.91644 82.1553 8.95929 82.4261 9.00957C82.6975 9.05985 82.9374 9.11384 83.1437 9.17154C83.3505 9.22931 83.5126 9.27958 83.6251 9.32238L83.2562 11.0505C82.9346 10.8966 82.5977 10.7774 82.2513 10.6949C81.7119 10.5617 81.1576 10.4991 80.6022 10.5086C80.0976 10.4967 79.5979 10.6119 79.1484 10.8438C78.9554 10.9388 78.7938 11.0885 78.6835 11.2746C78.5726 11.4608 78.5186 11.6754 78.5268 11.8923C78.5224 12.1162 78.5699 12.3381 78.6653 12.5403C78.7695 12.7394 78.9162 12.9125 79.0949 13.0468C79.3161 13.2157 79.5565 13.357 79.8108 13.4677C80.0965 13.5981 80.4379 13.7358 80.8383 13.8792C81.3656 14.0803 81.8366 14.2783 82.2513 14.4733C82.6341 14.648 82.9909 14.8768 83.3097 15.153C83.6009 15.4117 83.8314 15.7331 83.9831 16.0934C84.1519 16.5227 84.2318 16.982 84.2191 17.4435C84.2191 18.4801 83.8375 19.2647 83.0736 19.7974C82.3103 20.33 81.2227 20.5969 79.8108 20.5981C79.0326 20.6218 78.2549 20.5379 77.4994 20.3486C76.9451 20.1822 76.5673 20.0581 76.3671 19.9761L76.7338 18.2499C76.9616 18.3355 77.3251 18.4652 77.8242 18.6391C78.4706 18.8306 79.1429 18.9162 79.8163 18.8923Z" fill="#15151E"/>
<path d="M87.3479 9.10612H91.5627V10.8008H87.3479V15.9759C87.3391 16.4436 87.3821 16.9108 87.477 17.3688C87.5376 17.6829 87.6695 17.9786 87.8625 18.2328C88.0291 18.4404 88.2524 18.5944 88.5045 18.6761C88.7951 18.7676 89.0979 18.8116 89.4024 18.8064C89.8921 18.8232 90.3813 18.7532 90.8468 18.5997C91.2158 18.4638 91.4629 18.3669 91.6068 18.3092L91.9907 19.9722C91.6509 20.123 91.3007 20.2475 90.9428 20.3446C90.3863 20.5036 89.8094 20.5801 89.2308 20.5718C88.5944 20.5918 87.9596 20.4926 87.359 20.2794C86.8907 20.1032 86.4798 19.8004 86.171 19.4042C85.8555 18.98 85.6398 18.4891 85.54 17.9684C85.4099 17.3182 85.3481 16.6559 85.3558 15.9926V5.97391L87.3457 5.62939L87.3479 9.10612Z" fill="#15151E"/>
<path d="M91.9703 14.7448C91.9515 13.8565 92.0966 12.9724 92.3983 12.1377C92.6487 11.4507 93.0342 10.8222 93.5328 10.2904C93.9894 9.80986 94.5437 9.43447 95.1576 9.18984C95.756 8.94571 96.3952 8.81932 97.041 8.81738C98.539 8.81738 99.6873 9.28918 100.486 10.2327C101.286 11.1762 101.685 12.6126 101.684 14.5419V14.877C101.684 15.0015 101.677 15.1258 101.663 15.2495H94.0451C94.1301 16.4177 94.4654 17.3035 95.0506 17.9069C95.6363 18.5102 96.5491 18.8125 97.79 18.8138C98.3834 18.8237 98.9763 18.7611 99.5549 18.6275C99.925 18.541 100.287 18.4213 100.636 18.27L100.914 19.946C100.506 20.1311 100.079 20.2691 99.6398 20.3576C98.9642 20.5177 98.272 20.5989 97.5777 20.5996C96.7189 20.6193 95.8646 20.4687 95.0638 20.1565C94.3976 19.8894 93.8014 19.4715 93.3204 18.9348C92.8538 18.4003 92.5069 17.7701 92.304 17.0875C92.0751 16.3283 91.9626 15.5384 91.9703 14.7448ZM99.6067 13.6424C99.6216 12.7349 99.3972 11.99 98.9333 11.4077C98.7055 11.1208 98.4143 10.8921 98.0823 10.74C97.7508 10.588 97.3885 10.5169 97.0245 10.5325C96.6042 10.5221 96.1878 10.6141 95.8106 10.8007C95.4714 10.9727 95.1697 11.2114 94.9232 11.5027C94.6766 11.7972 94.4842 12.134 94.3551 12.4972C94.2211 12.8661 94.1312 13.25 94.0876 13.6405L99.6067 13.6424Z" fill="#15151E"/>
<path d="M107.376 8.86974C107.546 8.86974 107.745 8.86974 107.965 8.9014C108.184 8.93305 108.404 8.95167 108.618 8.98704C108.832 9.02246 109.027 9.05971 109.206 9.09508C109.339 9.12036 109.471 9.15334 109.6 9.19375L109.26 10.9424C109.003 10.8599 108.742 10.7915 108.477 10.7376C108.015 10.6498 107.545 10.6098 107.075 10.6184C106.703 10.6185 106.333 10.6585 105.969 10.7376C105.6 10.8176 105.365 10.8716 105.251 10.8995V20.3391H103.268V9.58295C103.841 9.38112 104.428 9.21814 105.022 9.09508C105.797 8.93709 106.586 8.86154 107.376 8.86974Z" fill="#15151E"/>
<path d="M0.60498 9.43017C1.06059 9.3147 1.66377 9.19363 2.41266 9.05771C3.27288 8.9219 4.14291 8.85959 5.0135 8.87151C5.62507 8.85449 6.2344 8.953 6.81013 9.16198C7.27766 9.34486 7.69555 9.63716 8.02939 10.0149C8.129 9.94415 8.28574 9.84359 8.49973 9.71321C8.75349 9.56714 9.01877 9.44259 9.29288 9.34075C9.6345 9.20904 9.98455 9.10078 10.3406 9.01675C10.7475 8.92112 11.1642 8.87428 11.582 8.87705C12.2994 8.84845 13.0146 8.97545 13.6793 9.24951C14.1941 9.4789 14.6349 9.84919 14.952 10.3184C15.2716 10.8147 15.4829 11.3739 15.5718 11.959C15.6828 12.6448 15.7365 13.3387 15.7323 14.0335V20.3409H13.742V14.4637C13.7489 13.8937 13.7181 13.3238 13.6498 12.7579C13.6027 12.3419 13.4775 11.9386 13.2809 11.5698C13.1158 11.266 12.862 11.0209 12.5541 10.8678C12.1803 10.7023 11.7741 10.6246 11.3662 10.6406C10.8008 10.6219 10.2371 10.7136 9.70609 10.9106C9.3867 11.0254 9.08683 11.1894 8.81703 11.3967C8.93765 11.7988 9.02401 12.2106 9.07525 12.6276C9.13239 13.0934 9.16068 13.5623 9.16008 14.0317V20.339H7.17348V14.4637C7.17977 13.8932 7.14403 13.3231 7.06648 12.7579C7.01602 12.3426 6.89104 11.94 6.69757 11.5698C6.5325 11.266 6.27874 11.0209 5.97082 10.8678C5.60157 10.7022 5.19957 10.6245 4.79585 10.6406C4.59479 10.6406 4.38082 10.6406 4.15393 10.6611C3.92705 10.6816 3.70755 10.6946 3.50096 10.7151C3.29437 10.7356 3.10438 10.7635 2.93283 10.7914C2.76128 10.8194 2.64877 10.8417 2.59158 10.8566V20.339H0.60498V9.43017Z" fill="#15151E"/>
<path d="M21.3379 8.82481C22.0275 8.8063 22.7148 8.91289 23.367 9.13951C23.8746 9.32044 24.3306 9.62416 24.6951 10.0241C25.0347 10.4159 25.2796 10.8818 25.4108 11.3853C25.5593 11.9528 25.6313 12.5378 25.6247 13.1247V20.1452L24.9091 20.2644C24.601 20.3147 24.2561 20.3612 23.8705 20.4041C23.485 20.4469 23.0682 20.486 22.6181 20.5233C22.168 20.5605 21.7235 20.5772 21.2808 20.5772C20.6982 20.5845 20.1168 20.5219 19.5487 20.391C19.0571 20.2775 18.5922 20.0681 18.1801 19.7746C17.7892 19.4872 17.479 19.1022 17.2799 18.6573C17.0532 18.1335 16.9436 17.5657 16.9589 16.9944C16.9427 16.4385 17.0698 15.8879 17.3278 15.3966C17.572 14.9565 17.9214 14.5851 18.3442 14.3165C18.8054 14.0296 19.3121 13.8248 19.842 13.7113C20.4328 13.5819 21.036 13.5194 21.6405 13.525C21.8474 13.5248 22.0543 13.5354 22.2603 13.5567C22.4742 13.5791 22.6771 13.6069 22.8708 13.6442C23.0645 13.6814 23.2397 13.7113 23.3725 13.741C23.5053 13.7709 23.616 13.7913 23.6732 13.8043V13.2457C23.6727 12.915 23.6368 12.5854 23.5662 12.2625C23.4994 11.9503 23.368 11.6558 23.1807 11.3984C22.9809 11.1362 22.7198 10.9282 22.4207 10.7931C22.0243 10.6274 21.597 10.5499 21.1683 10.566C20.5915 10.5598 20.0154 10.6072 19.4473 10.7075C19.0703 10.7697 18.6998 10.867 18.3406 10.998L18.1063 9.33502C18.5236 9.17692 18.9564 9.06451 19.3975 8.99987C20.0379 8.88407 20.6873 8.82548 21.3379 8.82481ZM21.5095 18.892C21.9805 18.892 22.398 18.8814 22.762 18.8603C23.0679 18.846 23.372 18.8061 23.6713 18.7411V15.3891C23.4495 15.2939 23.2153 15.2312 22.9759 15.2029C22.5891 15.1485 22.1988 15.1236 21.8083 15.1284C21.49 15.1291 21.172 15.1509 20.8565 15.1936C20.5367 15.2316 20.2251 15.3222 19.9342 15.4617C19.6638 15.5928 19.4261 15.7838 19.2388 16.0204C19.0461 16.2908 18.9487 16.6186 18.9622 16.9515C18.9622 17.6703 19.189 18.1713 19.6465 18.4524C20.104 18.7336 20.7256 18.892 21.5095 18.892Z" fill="#15151E"/>
<path d="M28.613 7.07627C28.4456 7.07993 28.2791 7.05021 28.1231 6.98885C27.9671 6.92748 27.8245 6.83574 27.7037 6.71872C27.5784 6.594 27.4807 6.44383 27.4171 6.27819C27.3535 6.11256 27.3255 5.93523 27.3347 5.75784C27.3258 5.58045 27.3541 5.40323 27.4176 5.23765C27.4812 5.07207 27.5787 4.9219 27.7037 4.79693C27.9523 4.56819 28.2766 4.44141 28.613 4.44141C28.9494 4.44141 29.2737 4.56819 29.5224 4.79693C29.6473 4.9219 29.7448 5.07207 29.8084 5.23765C29.8719 5.40323 29.9002 5.58045 29.8913 5.75784C29.9005 5.93523 29.8724 6.11256 29.8089 6.27819C29.7453 6.44383 29.6476 6.594 29.5224 6.71872C29.4015 6.83574 29.259 6.92748 29.1029 6.98885C28.9469 7.05021 28.7804 7.07993 28.613 7.07627ZM29.6183 20.339H27.6299V9.10607H29.6183V20.339Z" fill="#15151E"/>
<path d="M35.0967 20.555C33.867 20.5277 32.9969 20.2614 32.4866 19.7561C31.9763 19.2508 31.7193 18.4662 31.7156 17.4023V3.92166L33.7059 3.57715V17.0782C33.6995 17.3545 33.728 17.6304 33.7907 17.8994C33.8366 18.0938 33.9327 18.2725 34.0693 18.4171C34.2135 18.5557 34.3898 18.6555 34.582 18.7077C34.8418 18.7824 35.1071 18.8366 35.3752 18.8697L35.0967 20.555Z" fill="#15151E"/>
<path d="M57.2462 11.5572H55.0807C54.9829 9.58417 54.2126 7.70592 52.9004 6.24054L54.4756 4.65577C54.5624 4.56018 54.6093 4.43442 54.6064 4.30475C54.6036 4.17509 54.5512 4.05157 54.4602 3.95998C54.3693 3.8684 54.2468 3.81583 54.1184 3.81328C53.9899 3.81072 53.8655 3.85837 53.771 3.94627L52.1902 5.54219C50.7698 4.27984 48.9718 3.53381 47.0826 3.42298V1.24791C47.0826 1.11456 47.0301 0.986674 46.9367 0.892382C46.8433 0.798089 46.7167 0.745117 46.5846 0.745117C46.4525 0.745117 46.3258 0.798089 46.2324 0.892382C46.139 0.986674 46.0865 1.11456 46.0865 1.24791V3.41553C44.1844 3.52465 42.3744 4.27855 40.9494 5.55521L39.3907 3.98165C39.2973 3.88732 39.1706 3.83432 39.0385 3.83432C38.9063 3.83432 38.7796 3.88732 38.6862 3.98165C38.5927 4.07598 38.5402 4.20392 38.5402 4.33733C38.5402 4.47074 38.5927 4.59868 38.6862 4.69302L40.2429 6.26288C38.9411 7.72432 38.1776 9.59398 38.0811 11.5572H35.923C35.7909 11.5572 35.6642 11.6101 35.5708 11.7044C35.4774 11.7987 35.4249 11.9266 35.4249 12.0599C35.4249 12.1933 35.4774 12.3212 35.5708 12.4155C35.6642 12.5098 35.7909 12.5627 35.923 12.5627H38.0996C38.2237 14.4437 38.9604 16.2304 40.195 17.6447L38.6935 19.1606C38.6001 19.2549 38.5476 19.3829 38.5476 19.5162C38.5476 19.6497 38.6001 19.7776 38.6935 19.8719C38.787 19.9663 38.9137 20.0193 39.0458 20.0193C39.178 20.0193 39.3047 19.9663 39.3981 19.8719L40.8923 18.3617C42.3249 19.6706 44.1576 20.4459 46.0865 20.5591V22.7752C46.0865 22.9085 46.139 23.0364 46.2324 23.1307C46.3258 23.2249 46.4525 23.2779 46.5846 23.2779C46.7167 23.2779 46.8433 23.2249 46.9367 23.1307C47.0301 23.0364 47.0826 22.9085 47.0826 22.7752V20.5591C48.9988 20.445 50.8197 19.6774 52.2474 18.3822L53.7636 19.9148C53.8571 20.0091 53.9838 20.0621 54.1159 20.0621C54.2481 20.0621 54.3748 20.0091 54.4682 19.9148C54.5617 19.8204 54.6142 19.6925 54.6142 19.5591C54.6142 19.4257 54.5617 19.2977 54.4682 19.2034L52.9483 17.6689C54.1931 16.2499 54.9366 14.454 55.0622 12.5627H57.239C57.3709 12.5627 57.4977 12.5098 57.5909 12.4155C57.6841 12.3212 57.7371 12.1933 57.7371 12.0599C57.7371 11.9266 57.6841 11.7987 57.5909 11.7044C57.4977 11.6101 57.3709 11.5572 57.239 11.5572H57.2462ZM46.9166 4.41368C48.6581 4.48942 50.3186 5.1771 51.611 6.35783L47.837 10.1661C47.7637 10.2407 47.6701 10.2918 47.568 10.3131C47.466 10.3342 47.36 10.3246 47.2634 10.2852C47.1634 10.2454 47.0777 10.1761 47.0172 10.0865C46.9567 9.99681 46.9242 9.89094 46.924 9.78245L46.9166 4.41368ZM46.2525 4.41368V9.81411C46.2504 9.91499 46.2186 10.013 46.1611 10.0956C46.1036 10.1781 46.0231 10.2416 45.9297 10.2778L45.8744 10.3001C45.7825 10.3409 45.6805 10.3527 45.5818 10.3341C45.4831 10.3155 45.3922 10.2673 45.3211 10.1959L41.5378 6.37834C42.8326 5.18559 44.5014 4.49019 46.2525 4.41368ZM41.0656 6.84947L44.823 10.6465C44.8955 10.7218 44.9433 10.8177 44.9598 10.9214C44.9763 11.025 44.9608 11.1313 44.9153 11.2257C44.8907 11.2772 44.8691 11.33 44.8507 11.384C44.8182 11.4836 44.7559 11.5707 44.6723 11.6331C44.5886 11.6955 44.4879 11.7301 44.384 11.7322H39.0809C39.1392 9.9166 39.8439 8.18303 41.0656 6.84947ZM39.0846 12.3951H44.419C44.5176 12.3949 44.614 12.4243 44.6958 12.4797C44.7777 12.5352 44.8412 12.614 44.8784 12.7061C44.9154 12.7978 44.9249 12.8985 44.9056 12.9955C44.8862 13.0926 44.8389 13.1817 44.7695 13.2518L41.0085 17.06C39.8557 15.7741 39.1764 14.127 39.0846 12.3951ZM46.2525 19.5535C44.472 19.4752 42.7777 18.7573 41.4751 17.5293L45.203 13.7806C45.2765 13.7063 45.3711 13.6571 45.4737 13.6401C45.5764 13.623 45.6817 13.639 45.7748 13.6856C45.8283 13.7117 45.8818 13.7359 45.939 13.7583C46.0319 13.7946 46.1116 13.8585 46.1677 13.9417C46.2236 14.0249 46.2533 14.1233 46.2525 14.2238V19.5535ZM45.4077 12.0115C45.4077 11.7766 45.4768 11.5468 45.6061 11.3514C45.7354 11.1561 45.9192 11.0038 46.1342 10.9138C46.3493 10.8239 46.5859 10.8004 46.8142 10.8463C47.0424 10.8921 47.2521 11.0053 47.4167 11.1714C47.5813 11.3376 47.6934 11.5493 47.7388 11.7797C47.7842 12.0102 47.7609 12.2491 47.6718 12.4662C47.5828 12.6833 47.4319 12.8688 47.2384 12.9994C47.0449 13.13 46.8173 13.1996 46.5846 13.1996C46.2725 13.1996 45.9731 13.0744 45.7524 12.8516C45.5318 12.6288 45.4077 12.3266 45.4077 12.0115ZM46.9166 19.5535V14.2164C46.9163 14.1152 46.9465 14.0163 47.0032 13.9328C47.0598 13.8493 47.1403 13.7852 47.2339 13.749C47.28 13.7304 47.3261 13.7117 47.3704 13.6894C47.4631 13.6445 47.5673 13.6298 47.6688 13.6471C47.7701 13.6644 47.8637 13.713 47.9366 13.7862L51.6719 17.559C50.3707 18.7713 48.6856 19.478 46.9166 19.5535ZM52.1404 17.0768L48.383 13.289C48.3131 13.2189 48.2657 13.1292 48.2469 13.0316C48.2282 12.934 48.2389 12.8329 48.2779 12.7415C48.2779 12.7285 48.2779 12.7154 48.2926 12.7043C48.3298 12.6126 48.3931 12.5342 48.4746 12.4792C48.5561 12.4241 48.652 12.3948 48.7501 12.3951H54.0846C53.9922 14.1379 53.3052 15.7946 52.1404 17.0842V17.0768ZM48.3166 11.3877C48.295 11.3239 48.2691 11.2617 48.2391 11.2014C48.1912 11.1066 48.174 10.999 48.1899 10.8938C48.2058 10.7885 48.254 10.691 48.3277 10.6148L52.0814 6.82713C53.3163 8.16308 54.0294 9.90585 54.0883 11.7322H48.7852C48.6812 11.7313 48.5801 11.6976 48.4962 11.6358C48.4121 11.5741 48.3493 11.4873 48.3166 11.3877Z" fill="#A1D6FF"/>
<path d="M147.854 14.1235C148.291 14.1235 148.657 14.205 148.953 14.3677C149.182 14.4939 149.379 14.6621 149.545 14.8716L149.615 14.2456H151.199V20.6274C151.199 21.2294 151.065 21.7398 150.798 22.1587C150.535 22.5818 150.166 22.9011 149.693 23.1167C149.22 23.3363 148.669 23.4468 148.042 23.4468C147.767 23.4468 147.476 23.4097 147.168 23.3364C146.865 23.2633 146.573 23.1501 146.294 22.9956C146.019 22.8411 145.788 22.6454 145.602 22.4097L146.373 21.3726C146.574 21.6083 146.81 21.7913 147.077 21.9214C147.344 22.0555 147.639 22.1226 147.964 22.1226C148.279 22.1225 148.545 22.0636 148.764 21.9458C148.982 21.8319 149.151 21.6627 149.268 21.439C149.385 21.2194 149.445 20.9532 149.445 20.6401V20.2749C149.283 20.4581 149.098 20.6087 148.886 20.7251C148.595 20.8878 148.246 20.9692 147.841 20.9692C147.437 20.9692 147.071 20.886 146.743 20.7192C146.42 20.5525 146.142 20.3181 145.911 20.0171C145.68 19.7162 145.503 19.3622 145.378 18.9556C145.256 18.5488 145.195 18.1054 145.195 17.6255V17.4976C145.195 16.9932 145.256 16.5353 145.378 16.1245C145.503 15.7099 145.678 15.3539 145.905 15.0571C146.135 14.7602 146.415 14.5304 146.743 14.3677C147.071 14.2049 147.441 14.1235 147.854 14.1235ZM127.845 14.1235C128.355 14.1235 128.809 14.2086 129.206 14.3794C129.602 14.5502 129.913 14.8073 130.139 15.1489C130.37 15.4906 130.486 15.9177 130.486 16.4302V19.2554C130.486 19.6172 130.507 19.9142 130.552 20.146C130.596 20.3737 130.662 20.5729 130.747 20.7437V20.8472H128.98C128.9 20.679 128.839 20.4712 128.796 20.2241C128.733 20.2972 128.666 20.3698 128.592 20.439C128.422 20.5935 128.217 20.7211 127.978 20.8228C127.74 20.9204 127.457 20.9692 127.13 20.9692C126.713 20.9692 126.333 20.886 125.994 20.7192C125.658 20.5484 125.39 20.314 125.192 20.0171C124.998 19.7163 124.901 19.3748 124.901 18.9927C124.901 18.6469 124.966 18.3393 125.095 18.0708C125.225 17.8026 125.415 17.577 125.666 17.394C125.921 17.207 126.239 17.0668 126.62 16.9731C126.999 16.8756 127.441 16.8267 127.942 16.8267H128.725V16.4175C128.725 16.206 128.691 16.0249 128.622 15.8745C128.553 15.7201 128.446 15.5996 128.3 15.5142C128.159 15.4289 127.974 15.3862 127.748 15.3862C127.554 15.3862 127.386 15.4215 127.244 15.4907C127.102 15.5558 126.993 15.6508 126.917 15.7769C126.839 15.8989 126.801 16.0437 126.801 16.2104H125.052C125.052 15.9298 125.118 15.6629 125.247 15.4106C125.376 15.1586 125.565 14.9368 125.811 14.7456C126.058 14.5504 126.352 14.3983 126.692 14.2886C127.035 14.1787 127.42 14.1235 127.845 14.1235ZM141.467 14.1235C141.977 14.1235 142.431 14.2086 142.828 14.3794C143.225 14.5502 143.536 14.8072 143.762 15.1489C143.994 15.4906 144.108 15.9179 144.108 16.4302V19.2554C144.108 19.6172 144.131 19.9142 144.175 20.146C144.22 20.3736 144.284 20.573 144.369 20.7437V20.8472H142.603C142.523 20.679 142.461 20.4713 142.418 20.2241C142.355 20.2971 142.288 20.3698 142.215 20.439C142.044 20.5934 141.839 20.7211 141.601 20.8228C141.362 20.9203 141.079 20.9692 140.752 20.9692C140.335 20.9692 139.955 20.886 139.616 20.7192C139.28 20.5484 139.013 20.3139 138.815 20.0171C138.621 19.7162 138.523 19.3749 138.523 18.9927C138.523 18.6469 138.588 18.3393 138.717 18.0708C138.847 17.8026 139.038 17.577 139.288 17.394C139.543 17.207 139.861 17.0668 140.242 16.9731C140.622 16.8756 141.063 16.8267 141.565 16.8267H142.347V16.4175C142.347 16.206 142.313 16.0249 142.244 15.8745C142.176 15.7201 142.068 15.5996 141.923 15.5142C141.781 15.429 141.596 15.3862 141.37 15.3862C141.176 15.3863 141.008 15.4216 140.867 15.4907C140.725 15.5558 140.615 15.6509 140.539 15.7769C140.461 15.8989 140.424 16.0437 140.424 16.2104H138.675C138.675 15.9298 138.741 15.6629 138.87 15.4106C139 15.1587 139.187 14.9367 139.433 14.7456C139.681 14.5504 139.974 14.3983 140.314 14.2886C140.658 14.1787 141.043 14.1236 141.467 14.1235ZM155.387 14.1235C155.853 14.1235 156.265 14.2005 156.626 14.355C156.986 14.5095 157.288 14.7294 157.531 15.0142C157.778 15.2989 157.964 15.641 158.09 16.0396C158.215 16.434 158.277 16.8732 158.277 17.3569V18.0894H154.085C154.102 18.2346 154.13 18.3732 154.174 18.5044C154.25 18.7281 154.357 18.9218 154.495 19.0845C154.636 19.2471 154.807 19.3729 155.005 19.4624C155.207 19.5518 155.436 19.5961 155.691 19.5962C156.007 19.5962 156.299 19.5355 156.571 19.4136C156.846 19.2875 157.083 19.0983 157.282 18.8462L158.132 19.7739C157.994 19.9732 157.806 20.1642 157.567 20.3472C157.332 20.5302 157.048 20.6804 156.716 20.7983C156.385 20.9122 156.007 20.9692 155.582 20.9692C155.072 20.9692 154.614 20.8878 154.21 20.7251C153.805 20.5583 153.461 20.3283 153.178 20.0356C152.899 19.7428 152.684 19.4034 152.535 19.0171C152.385 18.6266 152.31 18.2113 152.31 17.772V17.5278C152.31 17.0278 152.381 16.5704 152.522 16.1558C152.664 15.7409 152.867 15.3807 153.13 15.0757C153.396 14.7706 153.721 14.5363 154.1 14.3735C154.481 14.2068 154.91 14.1235 155.387 14.1235ZM116.773 11.9634L119.044 18.4868L121.313 11.9634H123.693V20.8472H121.872V18.3218L122.052 14.1948L119.662 20.8472H118.424L116.033 14.1978L116.215 18.3218V20.8472H114.399V11.9634H116.773ZM135.397 14.1235C135.705 14.1236 135.986 14.168 136.241 14.2573C136.495 14.3468 136.714 14.4897 136.896 14.6851C137.083 14.8802 137.224 15.1382 137.322 15.4595C137.422 15.7808 137.473 16.1736 137.473 16.6372V20.8472H135.713V16.6313C135.713 16.3385 135.672 16.1105 135.591 15.9478C135.51 15.7852 135.391 15.671 135.233 15.606C135.079 15.5369 134.889 15.5025 134.663 15.5024C134.428 15.5024 134.224 15.5495 134.049 15.6431C133.879 15.7367 133.738 15.8669 133.625 16.0337C133.597 16.0755 133.57 16.119 133.546 16.1646V20.8472H131.798V14.2456H133.436L133.498 15.0386C133.51 15.0226 133.521 15.0053 133.534 14.9897C133.76 14.7093 134.029 14.4956 134.341 14.3491C134.656 14.1987 135.009 14.1235 135.397 14.1235ZM162.454 14.1235C162.55 14.1235 162.65 14.1316 162.752 14.1479C162.853 14.1601 162.935 14.1783 163 14.2026L162.969 15.8315C162.884 15.8193 162.782 15.8094 162.661 15.8013C162.543 15.7891 162.436 15.7827 162.339 15.7827C162.092 15.7827 161.878 15.8154 161.695 15.8804C161.517 15.9414 161.367 16.0337 161.246 16.1558C161.153 16.2519 161.079 16.3647 161.021 16.4937V20.8472H159.273V14.2456H160.918L160.975 15.0581C160.992 15.0269 161.009 14.9954 161.027 14.9653C161.193 14.6969 161.395 14.4896 161.634 14.3433C161.874 14.1969 162.146 14.1236 162.454 14.1235ZM127.991 17.8208C127.761 17.8208 127.56 17.8471 127.39 17.8999C127.22 17.9528 127.08 18.0289 126.971 18.1265C126.861 18.2201 126.781 18.3295 126.728 18.4556C126.679 18.5817 126.656 18.7201 126.656 18.8706C126.656 19.021 126.691 19.1577 126.759 19.2798C126.828 19.3975 126.926 19.4911 127.056 19.5601C127.185 19.6252 127.337 19.6577 127.511 19.6577C127.774 19.6577 128.003 19.6042 128.197 19.4985C128.391 19.3927 128.542 19.2634 128.647 19.1089C128.678 19.0653 128.703 19.0213 128.725 18.979V17.8208H127.991ZM141.613 17.8208C141.383 17.8208 141.183 17.847 141.012 17.8999C140.842 17.9528 140.702 18.0289 140.593 18.1265C140.485 18.22 140.403 18.3296 140.35 18.4556C140.302 18.5816 140.278 18.7201 140.278 18.8706C140.278 19.021 140.313 19.1577 140.382 19.2798C140.45 19.3975 140.549 19.491 140.678 19.5601C140.808 19.6252 140.96 19.6577 141.134 19.6577C141.397 19.6576 141.626 19.6042 141.82 19.4985C142.014 19.3928 142.164 19.2632 142.269 19.1089C142.3 19.0659 142.325 19.0227 142.347 18.981V17.8208H141.613ZM148.297 15.5024C148.066 15.5025 147.865 15.555 147.696 15.6606C147.53 15.7623 147.391 15.9036 147.278 16.0825C147.168 16.2614 147.085 16.4724 147.028 16.7163C146.972 16.9563 146.944 17.2169 146.944 17.4976V17.6255C146.944 17.898 146.97 18.1524 147.022 18.3882C147.075 18.6241 147.156 18.8341 147.265 19.0171C147.378 19.196 147.518 19.3363 147.684 19.438C147.854 19.5356 148.054 19.5845 148.285 19.5845C148.605 19.5844 148.866 19.5175 149.068 19.3833C149.224 19.2767 149.349 19.1392 149.445 18.9722V16.1304C149.413 16.0722 149.379 16.0171 149.341 15.9663C149.232 15.8198 149.09 15.7058 148.917 15.6245C148.743 15.5432 148.536 15.5024 148.297 15.5024ZM155.369 15.4966C155.139 15.4966 154.94 15.5473 154.774 15.6489C154.609 15.7506 154.473 15.8928 154.368 16.0757C154.266 16.2588 154.19 16.475 154.137 16.7231C154.125 16.7866 154.114 16.8517 154.104 16.9185H156.559V16.7837C156.559 16.5399 156.515 16.3224 156.426 16.1313C156.341 15.9361 156.211 15.7814 156.037 15.6675C155.863 15.5537 155.64 15.4966 155.369 15.4966Z" fill="#15151E"/>
</svg>
