<svg xmlns="http://www.w3.org/2000/svg" viewBox="0 0 860 360" role="img" aria-label="Low-code : des blocs visuels completes par une fenetre de code custom">
  <defs>
    <pattern id="lcDots" width="32" height="32" patternUnits="userSpaceOnUse">
      <circle cx="2" cy="2" r="1.8" fill="#D7DEEA"/>
    </pattern>
    <marker id="lcArrow" viewBox="0 0 10 10" refX="7.5" refY="5" markerWidth="7" markerHeight="7" orient="auto-start-reverse">
      <path d="M0 0 L10 5 L0 10 z" fill="#1E2B3E"/>
    </marker>
  </defs>
  <rect width="860" height="360" fill="#EEF2F7"/>
  <rect width="860" height="360" fill="url(#lcDots)"/>

  <g>
    <rect x="70" y="142" width="150" height="76" rx="14" fill="#FFFFFF" stroke="#1E2B3E" stroke-width="2.5"/>
    <circle cx="94" cy="166" r="9" fill="#1E2B3E"/>
    <rect x="112" y="160" width="90" height="11" rx="5.5" fill="#1E2B3E"/>
    <rect x="112" y="182" width="60" height="8" rx="4" fill="#9AA6B6"/>
  </g>
  <path d="M222 180 H 300" stroke="#1E2B3E" stroke-width="3" fill="none" marker-end="url(#lcArrow)"/>

  <g>
    <rect x="304" y="96" width="252" height="168" rx="16" fill="#1E2B3E"/>
    <path d="M304 112 a16 16 0 0 1 16 -16 h220 a16 16 0 0 1 16 16 v22 h-252 z" fill="#172231"/>
    <circle cx="330" cy="115" r="6" fill="#E73952"/>
    <circle cx="352" cy="115" r="6" fill="#F6B73C"/>
    <circle cx="374" cy="115" r="6" fill="#3FB984"/>
    <rect x="328" y="158" width="40" height="9" rx="4.5" fill="#E73952"/>
    <rect x="376" y="158" width="92" height="9" rx="4.5" fill="#9FB0C4"/>
    <rect x="348" y="182" width="120" height="9" rx="4.5" fill="#6FA8FF"/>
    <rect x="348" y="206" width="70" height="9" rx="4.5" fill="#F6B73C"/>
    <rect x="328" y="230" width="48" height="9" rx="4.5" fill="#E73952"/>
    <rect x="384" y="230" width="62" height="9" rx="4.5" fill="#9FB0C4"/>
  </g>
  <path d="M560 180 H 638" stroke="#1E2B3E" stroke-width="3" fill="none" marker-end="url(#lcArrow)"/>

  <g>
    <rect x="640" y="142" width="150" height="76" rx="14" fill="#FFFFFF" stroke="#1E2B3E" stroke-width="2.5"/>
    <circle cx="664" cy="166" r="9" fill="#E73952"/>
    <rect x="682" y="160" width="90" height="11" rx="5.5" fill="#1E2B3E"/>
    <rect x="682" y="182" width="64" height="8" rx="4" fill="#9AA6B6"/>
  </g>
</svg>
