<svg xmlns="http://www.w3.org/2000/svg" viewBox="0 0 860 360" role="img" aria-label="No-code : assembler des blocs visuels par glisser-deposer, sans ecrire de code">
  <defs>
    <pattern id="ncDots" width="32" height="32" patternUnits="userSpaceOnUse">
      <circle cx="2" cy="2" r="1.8" fill="#D7DEEA"/>
    </pattern>
    <marker id="ncArrow" viewBox="0 0 10 10" refX="7.5" refY="5" markerWidth="7" markerHeight="7" orient="auto-start-reverse">
      <path d="M0 0 L10 5 L0 10 z" fill="#1E2B3E"/>
    </marker>
  </defs>
  <rect width="860" height="360" fill="#EEF2F7"/>
  <rect width="860" height="360" fill="url(#ncDots)"/>

  <path d="M252 128 H 330" stroke="#1E2B3E" stroke-width="3" fill="none" marker-end="url(#ncArrow)"/>
  <path d="M532 128 H 610" stroke="#1E2B3E" stroke-width="3" fill="none" marker-end="url(#ncArrow)"/>

  <g>
    <rect x="92" y="90" width="160" height="76" rx="14" fill="#FFFFFF" stroke="#1E2B3E" stroke-width="2.5"/>
    <circle cx="116" cy="114" r="9" fill="#E73952"/>
    <rect x="134" y="108" width="98" height="11" rx="5.5" fill="#1E2B3E"/>
    <rect x="134" y="130" width="66" height="8" rx="4" fill="#9AA6B6"/>
  </g>
  <g>
    <rect x="372" y="90" width="160" height="76" rx="14" fill="#FFFFFF" stroke="#1E2B3E" stroke-width="2.5"/>
    <circle cx="396" cy="114" r="9" fill="#1E2B3E"/>
    <rect x="414" y="108" width="98" height="11" rx="5.5" fill="#1E2B3E"/>
    <rect x="414" y="130" width="74" height="8" rx="4" fill="#9AA6B6"/>
  </g>
  <g>
    <rect x="652" y="90" width="160" height="76" rx="14" fill="#FFFFFF" stroke="#1E2B3E" stroke-width="2.5"/>
    <circle cx="676" cy="114" r="9" fill="#1E2B3E"/>
    <rect x="694" y="108" width="98" height="11" rx="5.5" fill="#1E2B3E"/>
    <rect x="694" y="130" width="58" height="8" rx="4" fill="#9AA6B6"/>
  </g>

  <rect x="372" y="232" width="160" height="76" rx="14" fill="none" stroke="#E73952" stroke-width="2.5" stroke-dasharray="9 8"/>
  <g>
    <rect x="404" y="214" width="160" height="76" rx="14" fill="#FFF1F3" stroke="#E73952" stroke-width="2.5"/>
    <circle cx="428" cy="238" r="9" fill="#E73952"/>
    <rect x="446" y="232" width="98" height="11" rx="5.5" fill="#1E2B3E"/>
    <rect x="446" y="254" width="70" height="8" rx="4" fill="#C76075"/>
  </g>
  <path d="M548 284 l0 34 l9 -8 l6 13 l7 -3 l-6 -13 l11 -1 z" fill="#1E2B3E" stroke="#FFFFFF" stroke-width="2.5" stroke-linejoin="round"/>
</svg>
