<svg xmlns="http://www.w3.org/2000/svg" viewBox="0 0 256 256" fill="none">
  <!-- broches (brancher) -->
  <g stroke="#1E2B3E" stroke-width="8" stroke-linecap="round">
    <path d="M86 70 V52"/><path d="M116 70 V52"/><path d="M146 70 V52"/>
    <path d="M86 170 V188"/><path d="M116 170 V188"/><path d="M146 170 V188"/>
    <path d="M66 96 H48"/><path d="M66 120 H48"/><path d="M66 144 H48"/>
    <path d="M166 96 H184"/><path d="M166 120 H184"/><path d="M166 144 H184"/>
  </g>
  <!-- puce -->
  <rect x="66" y="70" width="100" height="100" rx="18" fill="#FFFFFF" stroke="#1E2B3E" stroke-width="9"/>
  <!-- coeur neuronal -->
  <g stroke="#1E2B3E" stroke-width="6" stroke-linecap="round">
    <path d="M116 120 L92 96"/><path d="M116 120 L142 98"/>
    <path d="M116 120 L96 146"/><path d="M116 120 L140 146"/>
  </g>
  <g fill="#1E2B3E">
    <circle cx="92" cy="96" r="6"/><circle cx="142" cy="98" r="6"/>
    <circle cx="96" cy="146" r="6"/><circle cx="140" cy="146" r="6"/>
  </g>
  <circle cx="116" cy="120" r="17" fill="#E73952"/>
</svg>
